<?xml version="1.0" encoding="utf-8"?>
<svg viewBox="0 0 328.781 140.601" xmlns="http://www.w3.org/2000/svg">
    <g transform="matrix(0.9999999999999999, 0, 0, 0.9999999999999999, 0, 2.842170943040401e-14)">
        <g>
            <path d="M0 140.601v-140.601h328.781v140.601z" fill="#a155b5" stroke="transparent" stroke-width="0" rx="0%" data-fill-palette-color="tertiary"/>
            <path d="M3.283 137.317v-134.034h322.215v134.034z" fill="#f8f8f8" stroke="transparent" stroke-width="0" rx="0%" data-fill-palette-color="quaternary"/>
            <path d="M9.85 130.751v-120.901h309.081v120.901z" fill="#a155b5" stroke="transparent" stroke-width="0" data-fill-palette-color="tertiary"/>
        </g>
        <path d="M 97.863 37.39 C 97.863 37.566 97.75 38.177 97.521 39.224 C 97.292 40.27 97.051 41.323 96.797 42.384 C 96.554 43.457 96.387 44.108 96.293 44.337 C 96.16 44.793 95.979 45.189 95.75 45.525 C 95.521 45.871 95.125 46.047 94.561 46.047 C 94.199 46.047 93.811 45.967 93.393 45.806 C 92.145 45.378 90.891 45.021 89.629 44.739 C 88.369 44.472 87.066 44.337 85.724 44.337 C 84.086 44.337 82.456 44.564 80.832 45.021 C 79.208 45.477 77.852 46.263 76.763 47.376 C 75.691 48.489 75.153 50.027 75.153 51.986 C 75.153 54.456 75.778 56.482 77.026 58.066 C 78.262 59.651 79.858 61.012 81.817 62.153 C 83.764 63.281 85.832 64.394 88.019 65.495 C 90.22 66.583 92.294 67.877 94.239 69.382 C 96.199 70.871 97.796 72.744 99.03 74.999 C 100.278 77.266 100.903 80.166 100.903 83.695 C 100.903 88.553 99.754 92.419 97.459 95.291 C 95.164 98.177 92.153 100.259 88.421 101.532 C 84.691 102.82 80.678 103.465 76.381 103.465 C 75.107 103.465 73.591 103.39 71.831 103.244 C 70.074 103.097 68.336 102.86 66.618 102.54 C 64.901 102.231 63.452 101.849 62.269 101.391 C 61.881 101.23 61.553 101.035 61.282 100.808 C 61.029 100.579 60.9 100.217 60.9 99.719 C 60.9 99.518 61.029 98.875 61.282 97.787 C 61.553 96.686 61.833 95.579 62.128 94.467 C 62.425 93.352 62.606 92.659 62.671 92.393 C 62.833 91.935 63.022 91.561 63.235 91.264 C 63.452 90.97 63.834 90.822 64.383 90.822 C 64.72 90.822 65.036 90.876 65.329 90.983 C 66.927 91.439 68.551 91.827 70.201 92.15 C 71.867 92.486 73.531 92.653 75.193 92.653 C 77.261 92.653 79.255 92.367 81.174 91.788 C 83.095 91.21 84.663 90.237 85.883 88.87 C 87.119 87.486 87.736 85.601 87.736 83.211 C 87.736 80.488 87.099 78.299 85.824 76.649 C 84.536 74.999 82.892 73.603 80.891 72.461 C 78.907 71.334 76.785 70.252 74.53 69.221 C 72.289 68.188 70.169 66.985 68.167 65.616 C 66.169 64.233 64.532 62.449 63.255 60.262 C 61.981 58.061 61.344 55.208 61.344 51.705 C 61.344 47.342 62.377 43.827 64.443 41.156 C 66.497 38.483 69.214 36.525 72.597 35.277 C 75.967 34.043 79.582 33.426 83.449 33.426 C 85.382 33.426 87.609 33.601 90.133 33.949 C 92.657 34.311 94.802 34.888 96.574 35.679 C 96.978 35.84 97.292 36.041 97.521 36.284 C 97.75 36.538 97.863 36.907 97.863 37.39 Z M 116.143 102.721 L 108.271 102.721 C 107.815 102.721 107.326 102.645 106.802 102.498 C 106.279 102.351 106.016 101.968 106.016 101.351 C 106.016 101.083 106.064 100.822 106.157 100.565 C 106.253 100.298 106.352 100.048 106.46 99.821 C 109.346 93.595 112.204 87.365 115.036 81.139 C 117.869 74.911 120.661 68.655 123.41 62.376 C 125.665 57.195 127.908 52.006 130.136 46.813 C 132.363 41.618 134.658 36.465 137.02 31.352 C 137.13 31.151 137.295 31.049 137.524 31.049 C 137.753 31.049 137.914 31.151 138.007 31.352 C 140.37 36.465 142.665 41.618 144.892 46.813 C 147.119 52.006 149.361 57.195 151.616 62.376 C 154.368 68.655 157.167 74.911 160.011 81.139 C 162.844 87.365 165.702 93.595 168.588 99.821 C 168.681 100.048 168.777 100.298 168.868 100.565 C 168.978 100.822 169.03 101.083 169.03 101.351 C 169.03 101.968 168.769 102.351 168.245 102.498 C 167.722 102.645 167.226 102.721 166.755 102.721 L 156.831 102.721 C 156.013 102.721 155.39 102.311 154.958 101.493 C 154.705 100.969 154.462 100.41 154.233 99.821 C 154.006 99.232 153.777 98.672 153.548 98.151 C 152.824 96.513 152.127 94.843 151.455 93.137 C 150.784 91.431 150.073 89.761 149.321 88.123 C 149.213 87.857 149.032 87.721 148.777 87.721 L 124.437 87.721 C 124.184 87.721 124.003 87.857 123.894 88.123 C 123.117 89.761 122.371 91.431 121.658 93.137 C 120.962 94.843 120.237 96.525 119.485 98.191 C 119.258 98.714 119.015 99.271 118.76 99.861 C 118.518 100.452 118.251 101.009 117.954 101.532 C 117.526 102.323 116.921 102.721 116.143 102.721 Z M 128.523 77.455 L 144.892 77.455 C 143.577 74.179 142.249 70.91 140.905 67.65 C 139.564 64.388 138.222 61.12 136.879 57.846 C 135.498 61.12 134.114 64.388 132.731 67.65 C 131.338 70.91 129.934 74.179 128.523 77.455 Z M 176.882 35.882 C 176.882 34.498 177.554 33.808 178.896 33.808 L 219.341 33.808 C 220.684 33.808 221.355 34.498 221.355 35.882 C 221.355 37.116 221.369 38.417 221.395 39.787 C 221.409 41.142 221.369 42.444 221.273 43.692 C 221.168 45.008 220.489 45.664 219.241 45.664 L 190.008 45.664 C 189.62 45.664 189.425 45.859 189.425 46.25 C 189.425 48.96 189.433 51.685 189.445 54.422 C 189.459 57.161 189.465 59.892 189.465 62.616 C 189.465 63.005 189.66 63.2 190.048 63.2 L 214.972 63.2 C 216.315 63.2 216.986 63.87 216.986 65.214 L 216.986 72.945 C 216.986 74.286 216.315 74.957 214.972 74.957 L 190.048 74.957 C 189.66 74.957 189.465 75.152 189.465 75.542 C 189.465 78.386 189.465 81.225 189.465 84.057 C 189.465 86.901 189.453 89.749 189.425 92.594 C 189.383 93.935 189.371 95.285 189.383 96.64 C 189.413 98.01 189.391 99.363 189.324 100.706 C 189.216 102.05 188.547 102.721 187.311 102.721 L 178.854 102.721 C 177.515 102.721 176.842 102.03 176.842 100.647 C 176.842 98.847 176.862 97.056 176.902 95.271 C 176.957 93.485 176.997 91.694 177.023 89.895 C 177.132 82.351 177.184 74.831 177.184 67.328 C 177.184 62.053 177.132 56.805 177.023 51.584 C 176.929 46.349 176.882 41.114 176.882 35.882 Z M 264.861 37.39 C 264.861 37.566 264.747 38.177 264.518 39.224 C 264.289 40.27 264.049 41.323 263.794 42.384 C 263.551 43.457 263.384 44.108 263.29 44.337 C 263.157 44.793 262.976 45.189 262.747 45.525 C 262.518 45.871 262.122 46.047 261.559 46.047 C 261.196 46.047 260.808 45.967 260.39 45.806 C 259.142 45.378 257.888 45.021 256.626 44.739 C 255.367 44.472 254.063 44.337 252.719 44.337 C 251.083 44.337 249.453 44.564 247.829 45.021 C 246.205 45.477 244.857 46.263 243.783 47.376 C 242.694 48.489 242.15 50.027 242.15 51.986 C 242.15 54.456 242.775 56.482 244.023 58.066 C 245.259 59.651 246.856 61.012 248.814 62.153 C 250.761 63.281 252.835 64.394 255.036 65.495 C 257.224 66.583 259.292 67.877 261.236 69.382 C 263.197 70.871 264.793 72.744 266.027 74.999 C 267.275 77.266 267.9 80.166 267.9 83.695 C 267.9 88.553 266.752 92.419 264.457 95.291 C 262.162 98.177 259.15 100.259 255.418 101.532 C 251.688 102.82 247.676 103.465 243.378 103.465 C 242.105 103.465 240.588 103.39 238.828 103.244 C 237.085 103.097 235.345 102.86 233.616 102.54 C 231.898 102.231 230.447 101.849 229.267 101.391 C 228.879 101.23 228.55 101.035 228.279 100.808 C 228.027 100.579 227.897 100.217 227.897 99.719 C 227.897 99.518 228.027 98.875 228.279 97.787 C 228.55 96.686 228.831 95.579 229.125 94.467 C 229.422 93.352 229.603 92.659 229.669 92.393 C 229.83 91.935 230.019 91.561 230.232 91.264 C 230.447 90.97 230.831 90.822 231.38 90.822 C 231.717 90.822 232.033 90.876 232.326 90.983 C 233.924 91.439 235.556 91.827 237.218 92.15 C 238.87 92.486 240.528 92.653 242.19 92.653 C 244.258 92.653 246.253 92.367 248.171 91.788 C 250.09 91.21 251.66 90.237 252.881 88.87 C 254.117 87.486 254.734 85.601 254.734 83.211 C 254.734 80.488 254.097 78.299 252.821 76.649 C 251.547 74.999 249.909 73.603 247.909 72.461 C 245.91 71.334 243.783 70.252 241.527 69.221 C 239.286 68.188 237.166 66.985 235.164 65.616 C 233.166 64.233 231.53 62.449 230.252 60.262 C 228.978 58.061 228.339 55.208 228.339 51.705 C 228.339 47.342 229.374 43.827 231.44 41.156 C 233.508 38.483 236.225 36.525 239.595 35.277 C 242.964 34.043 246.589 33.426 250.466 33.426 C 252.399 33.426 254.626 33.601 257.15 33.949 C 259.674 34.311 261.813 34.888 263.571 35.679 C 263.975 35.84 264.289 36.041 264.518 36.284 C 264.747 36.538 264.861 36.907 264.861 37.39 Z" opacity="1" fill="#f8f8f8" class="wordmark-text-0" data-fill-palette-color="quaternary" id="text-0"/>
    </g>
</svg>
